<?xml version="1.0" encoding="utf-8"?>
<!-- Generator: Adobe Illustrator 19.0.0, SVG Export Plug-In . SVG Version: 6.00 Build 0)  -->
<svg version="1.1" id="Слой_1" xmlns="http://www.w3.org/2000/svg" xmlns:xlink="http://www.w3.org/1999/xlink" x="0px" y="0px"
	 viewBox="0 0 100 47.5" style="enable-background:new 0 0 100 47.5;" xml:space="preserve">
<style type="text/css">
	.st0{fill:#949494;}
	.st1{fill:#FEFEFE;}
	.st2{fill:#969696;}
	.st3{fill:#959595;}
	.st4{fill:#777777;}
	.st5{fill:#696969;}
	.st6{fill:#C7C7C7;}
	.st7{fill:#C0C0C0;}
	.st8{fill:#8D8D8D;}
	.st9{fill:#DFDFDF;}
	.st10{fill:#D7D7D7;}
	.st11{fill:#B2B2B2;}
	.st12{fill:#878787;}
	.st13{fill:#D5D5D5;}
	.st14{fill:#E2E2E2;}
	.st15{fill:#CACACA;}
	.st16{fill:#CECECE;}
</style>
<g>
	<g id="XMLID_1_">
		<g>
			<path class="st0" d="M96.6,33.9c0,0.2,0,0.3,0,0.5c-0.3,0-0.5,0-0.8,0c-0.1,0-0.2-0.1-0.3-0.1c-0.7-0.8-1.5-1.6-2.2-2.4
				c-0.1-0.1-0.1-0.1-0.3,0c-0.3,0.3-0.5,0.6-0.5,1c0,0.5,0,0.9,0,1.4c0,0.2,0,0.2-0.2,0.2c-0.2,0-0.4,0-0.6,0
				c-0.2,0-0.2-0.1-0.2-0.2c0-2.7,0-5.4,0-8.1c0-0.2,0-0.2,0.2-0.2c0.2,0,0.4,0,0.6,0c0.1,0,0.1,0,0.1,0.1c0,0.1,0,0.3,0,0.4
				c0,1.5,0,3,0,4.6c0,0.1,0,0.2,0,0.2c0.1,0,0.1-0.1,0.2-0.1c0.9-0.9,1.7-1.8,2.6-2.7c0.1-0.1,0.1-0.1,0.2-0.1c0.3,0,0.7,0,1,0
				c0,0,0,0.1,0,0.1c0,0-0.1,0-0.1,0.1c-0.8,0.8-1.7,1.7-2.5,2.5c-0.1,0.1-0.1,0.2,0,0.3c0.8,0.9,1.6,1.7,2.4,2.6
				C96.5,33.8,96.5,33.9,96.6,33.9z"/>
			<path class="st1" d="M96.6,28.3c0,1.9,0,3.7,0,5.6c0,0-0.1-0.1-0.1-0.1c-0.8-0.8-1.5-1.7-2.3-2.5C94,31,94,31,94.2,30.8
				c0.7-0.7,1.5-1.5,2.2-2.2C96.5,28.5,96.5,28.4,96.6,28.3z"/>
			<path class="st1" d="M96.6,33.9c-0.1,0-0.1-0.1-0.2-0.1c-0.8-0.9-1.6-1.7-2.4-2.6c-0.1-0.1-0.1-0.2,0-0.3
				c0.8-0.8,1.7-1.7,2.5-2.5c0,0,0.1,0,0.1-0.1c-0.1,0.1-0.1,0.2-0.2,0.3c-0.7,0.7-1.5,1.5-2.2,2.2C94,31,94,31,94.2,31.2
				c0.8,0.8,1.5,1.7,2.3,2.5C96.5,33.8,96.6,33.9,96.6,33.9z"/>
			<path class="st0" d="M90.4,29.4c0,0.2,0,0.2-0.2,0.1c-0.3-0.2-0.7-0.4-1.1-0.5c-0.8-0.3-1.7-0.1-2.2,0.6c-0.2,0.3-0.3,0.6-0.4,1
				c-0.1,0.8-0.1,1.6,0.3,2.3c0.3,0.5,0.7,0.7,1.3,0.8c0.7,0.1,1.4-0.2,2-0.6c0.1,0,0.1-0.2,0.2-0.1c0.1,0,0,0.2,0,0.3
				c0,0,0,0.1,0,0.1c0,0.7,0,0.7-0.6,0.9c-0.5,0.2-0.9,0.3-1.4,0.2c-0.9,0-1.6-0.2-2.2-0.8c-0.4-0.4-0.6-0.9-0.7-1.4
				c-0.1-0.7-0.1-1.4,0-2c0.2-1,0.8-1.7,1.8-2c1-0.3,2-0.2,2.9,0.3c0.1,0.1,0.1,0.1,0.1,0.2C90.4,28.9,90.4,29.2,90.4,29.4z"/>
			<path class="st2" d="M84.1,26.8c0,0.1,0,0.2-0.2,0.2c-0.1,0-0.2,0-0.4,0C83,27,83,27,83,26.4c0-0.5,0-0.5,0.5-0.5
				c0.2,0,0.3,0,0.5,0c0.1,0,0.2,0.1,0.2,0.2C84.1,26.4,84.1,26.6,84.1,26.8z"/>
			<path class="st0" d="M84.1,34.1c0,0.2-0.1,0.3-0.3,0.3c-0.2,0-0.4,0-0.5,0c-0.1,0-0.2-0.1-0.2-0.2c0-0.1,0-0.1,0-0.2
				c0-1.8,0-3.6,0-5.4c0-0.4,0-0.4,0.4-0.4c0.2,0,0.5-0.1,0.6,0c0.1,0.1,0,0.4,0,0.6c0,0.8,0,1.6,0,2.4
				C84.1,32.2,84.1,33.2,84.1,34.1z"/>
			<path class="st0" d="M81.3,34.1c0,0.2-0.1,0.3-0.3,0.3c-0.1,0-0.2,0-0.3,0c-0.4,0-0.4,0-0.4-0.4c0-0.8,0-1.7,0-2.5
				c0-0.5,0-0.9,0-1.4c0-0.4-0.1-0.9-0.6-1.1c-0.4-0.2-0.7-0.2-1.1-0.1c-0.4,0.1-0.8,0.3-1.2,0.6c-0.2,0.1-0.2,0.2-0.2,0.4
				c0,1.4,0,2.7,0,4.1c0,0.2,0,0.3-0.3,0.3c-0.2,0-0.3,0-0.5,0c-0.2,0-0.2-0.1-0.2-0.2c0-1,0-1.9,0-2.9h0c0-0.9,0-1.9,0-2.8
				c0-0.2,0.1-0.3,0.2-0.2c0.2,0,0.4,0,0.6,0c0.1,0,0.2,0,0.2,0.2c0,0.2-0.1,0.4,0,0.4c0.1,0.1,0.3-0.1,0.4-0.2
				c0.7-0.5,1.5-0.7,2.4-0.5c0.7,0.2,1.1,0.7,1.3,1.4c0.1,0.4,0.1,0.8,0.1,1.1C81.3,31.8,81.3,32.9,81.3,34.1z"/>
			<path class="st3" d="M74.5,31.1c0,0.1,0,0.2-0.2,0.2c-0.5,0-1,0-1.6,0c-0.5,0-1,0-1.5,0c-0.1,0-0.2,0-0.2-0.2c0-0.2,0-0.4,0-0.6
				c0-0.1,0-0.2,0.2-0.2c1,0,2.1,0,3.1,0c0.1,0,0.2,0,0.2,0.2C74.5,30.7,74.5,30.9,74.5,31.1z"/>
			<path class="st3" d="M70.2,28.4c0,0.6,0,0.6-0.6,0.6c-0.5,0-0.9,0-1.4,0c-0.2,0-0.2,0-0.2,0.2c0,1.1,0,2.3,0,3.4c0,0.7,0.4,1,1,1
				c0.3,0,0.6,0,0.9-0.1c0.1-0.1,0.2,0,0.2,0.1c0,0.1,0,0.1,0,0.2c0,0.5,0,0.6-0.5,0.6c-0.6,0.1-1.2,0.1-1.8-0.1
				c-0.6-0.3-0.8-0.9-0.9-1.6c0-0.6,0-1.2,0-1.7c0,0,0,0,0,0c0-0.6,0-1.2,0-1.8C67,29,67,29,66.8,29c-0.5,0-0.5,0-0.5-0.5
				c0-0.2,0.1-0.3,0.3-0.3c0.4,0,0.4,0,0.4-0.4c0-0.4,0-0.8,0-1.2c0-0.1,0-0.2,0.2-0.2c0.2,0,0.4,0,0.6,0c0.2,0,0.2,0.1,0.2,0.2
				c0,0.4,0,0.9,0,1.3c0,0.2,0,0.3,0.2,0.3c0.6,0,1.2,0,1.7,0C70.1,28.2,70.2,28.2,70.2,28.4z"/>
			<path class="st0" d="M65.3,28.4c0.2,0.1,0.2,0.1,0.2,0.3c0,0.2,0,0.5,0,0.7c0,0.2,0,0.2-0.2,0.1c-0.6-0.4-1.3-0.7-2.1-0.6
				c-0.3,0-0.6,0.1-0.8,0.2c-0.3,0.2-0.4,0.4-0.4,0.7c0,0.3,0.1,0.5,0.4,0.7c0.4,0.2,0.8,0.2,1.2,0.3c0.4,0.1,0.8,0.2,1.2,0.3
				c1,0.5,1.1,1.9,0.4,2.6c-0.4,0.4-0.8,0.6-1.3,0.6c-0.9,0.1-1.8,0-2.6-0.3c-0.2-0.1-0.3-0.2-0.3-0.5c0-0.1,0-0.2,0-0.3
				c0-0.1-0.1-0.4,0.1-0.5c0.1-0.1,0.3,0.2,0.4,0.2c0.8,0.5,1.6,0.6,2.5,0.5c0.8-0.2,1-0.9,0.6-1.4c-0.2-0.3-0.5-0.3-0.8-0.4
				c-0.5-0.1-1-0.2-1.6-0.4c-0.6-0.2-1.2-0.6-1.3-1.4c-0.1-0.7,0.3-1.3,0.9-1.7c0.7-0.4,1.4-0.4,2.1-0.3
				C64.4,28.1,64.9,28.2,65.3,28.4z"/>
			<path class="st3" d="M59,26c0.6,0,0.6,0,0.6,0.6c0,0.5,0,0.5-0.5,0.5c-0.2,0-0.5,0.1-0.6,0c-0.1-0.1,0-0.4-0.1-0.6
				c0-0.4,0-0.4,0.4-0.4C58.9,26,59,26,59,26z"/>
			<path class="st3" d="M59.5,34.1c0,0.2,0,0.2-0.2,0.2c-0.2,0-0.4,0-0.6,0c-0.2,0-0.2-0.1-0.2-0.2c0-1,0-1.9,0-2.9c0-1,0-1.9,0-2.9
				c0-0.2,0-0.2,0.2-0.2c0.2,0,0.4,0,0.6,0c0.2,0,0.2,0.1,0.2,0.2c0,1,0,2.1,0,3.1C59.5,32.4,59.5,33.3,59.5,34.1z"/>
			<path class="st3" d="M56.7,26.5c0,2.5,0,5.1,0,7.6c0,0.2,0,0.3-0.3,0.3c-0.2,0-0.3,0-0.5,0c-0.2,0-0.2-0.1-0.2-0.2
				c0-1.4,0-2.7,0-4.1c0,0,0,0,0,0c0-1.3,0-2.7,0-4c0-0.2,0-0.3,0.2-0.3c0.2,0,0.4,0,0.6,0c0.1,0,0.2,0,0.2,0.2
				C56.7,26.1,56.7,26.3,56.7,26.5z"/>
			<path class="st0" d="M53.8,30.3c0.2,0,0.3,0,0.3,0.3c0,0.2,0.1,0.5,0,0.6c-0.1,0.1-0.4,0-0.6,0c-0.2,0-0.4,0-0.5,0s-0.4,0-0.5,0
				c0,0,0,0,0,0c-0.5,0-1,0-1.5,0c-0.2,0-0.2-0.1-0.2-0.2c0-0.1,0-0.3,0-0.4c0-0.3,0-0.3,0.3-0.3C51.8,30.3,52.8,30.3,53.8,30.3z"/>
			<path class="st0" d="M48.9,27.9c0.2,0.8,0.3,1.6,0.3,2.3c0,0.9-0.1,1.6-0.3,2.4c-0.4,1.5-1.5,2.1-3,1.9c-1.3-0.1-1.9-1-2.2-2.2
				c-0.3-1.1-0.3-2.2-0.2-3.4c0.1-0.7,0.2-1.3,0.6-1.9c0.4-0.7,1.1-1,1.9-1.1c0.7-0.1,1.3,0,1.9,0.4C48.4,26.8,48.7,27.3,48.9,27.9z
				 M47.9,32.5c0.2-0.7,0.2-1.5,0.3-2.2c0-0.7,0-1.4-0.2-2c-0.2-0.7-0.4-1.3-1.3-1.5c-0.5-0.1-1,0-1.4,0.5c-0.3,0.3-0.4,0.8-0.5,1.2
				c-0.2,1.3-0.2,2.5,0.1,3.8c0.1,0.7,0.5,1.3,1.4,1.3C47,33.7,47.6,33.3,47.9,32.5z"/>
			<path class="st1" d="M48.1,30.3c0,0.7,0,1.4-0.3,2.2c-0.2,0.8-0.9,1.2-1.7,1.1c-0.9-0.1-1.2-0.7-1.4-1.3
				c-0.3-1.3-0.2-2.5-0.1-3.8c0.1-0.4,0.2-0.9,0.5-1.2c0.4-0.4,0.9-0.5,1.4-0.5c0.9,0.1,1.2,0.7,1.3,1.5
				C48.1,28.9,48.1,29.6,48.1,30.3z"/>
			<path class="st0" d="M42,28.1c0.2,0.9,0.3,1.7,0.2,2.6c0,0.8-0.1,1.7-0.5,2.5c-0.4,0.9-1.1,1.3-2,1.4c-0.7,0.1-1.4,0-2-0.5
				c-0.4-0.3-0.6-0.7-0.8-1.1c-0.3-0.9-0.4-1.7-0.4-2.7c0-0.8,0-1.6,0.3-2.4c0.4-1.2,1.2-1.9,2.4-1.9c0.8,0,1.5,0.1,2,0.7
				C41.6,27.1,41.9,27.6,42,28.1z M41.1,30.2c0-0.7,0-1.3-0.2-2c-0.2-0.7-0.5-1.3-1.4-1.4c-0.6-0.1-1.1,0.1-1.5,0.6
				c-0.3,0.4-0.4,0.8-0.4,1.3c-0.1,1.2-0.1,2.4,0.1,3.6c0.1,0.4,0.2,0.8,0.6,1.1c1,0.8,2.3,0.2,2.6-1C41.1,31.6,41.2,30.9,41.1,30.2
				z"/>
			<path class="st1" d="M41,28.2c0.2,0.7,0.2,1.3,0.2,2c0,0.7,0,1.4-0.2,2.1c-0.2,1.2-1.6,1.8-2.6,1c-0.3-0.3-0.5-0.6-0.6-1.1
				c-0.2-1.2-0.2-2.4-0.1-3.6c0.1-0.4,0.1-0.9,0.4-1.3c0.4-0.5,0.9-0.7,1.5-0.6C40.5,26.9,40.8,27.5,41,28.2z"/>
			<path class="st4" d="M40.9,1.7c0.2,0,0.2,0,0.2,0.2c0,3-0.5,6-1.7,8.8c-0.9,2-2.2,3.8-3.9,5.3c-1.8,1.6-3.9,2.7-6.2,3.6
				c-0.9,0.3-1.9,0.6-2.9,0.8c0,0,0,0,0,0c0.1-0.1,0.3-0.2,0.4-0.3c0.8-0.7,1.5-1.5,2.1-2.3c0.2-0.3,0.4-0.5,0.6-0.8
				c0.3-0.4,0.6-0.9,0.8-1.3c0.2-0.4,0.4-0.8,0.7-1.1c0.2-0.3,0.3-0.7,0.5-1.1c0.1-0.3,0.2-0.6,0.2-0.9c0.1-0.4,0.2-0.9,0.2-1.3
				c0.1-0.7,0-1.5,0.1-2.2c0-0.2-0.1-0.3-0.1-0.4c0-0.5,0-1-0.1-1.5c-0.1-0.4-0.1-0.8-0.1-1.2c0,0,0,0,0,0c0.8-0.5,1.6-1,2.4-1.4
				c1.7-0.9,3.4-1.6,5.3-2.1C40,1.9,40.5,1.8,40.9,1.7z"/>
			<path class="st0" d="M35.3,30.5c0,0.6-0.1,1.4-0.3,2.1c-0.3,0.9-0.8,1.6-1.7,1.8c-1.4,0.3-2.8,0-3.3-1.7
				c-0.4-1.1-0.4-2.2-0.3-3.4c0.1-0.7,0.1-1.3,0.4-1.9c0.3-0.8,0.9-1.3,1.7-1.4c0.6-0.1,1.2-0.1,1.8,0.2c0.7,0.3,1.1,0.8,1.3,1.5
				C35.2,28.5,35.3,29.4,35.3,30.5z M34,32.4c0.2-0.8,0.2-1.7,0.2-2.4c0-0.4,0-0.7,0-1c0-0.3-0.1-0.6-0.2-0.9
				c-0.2-0.7-0.6-1.2-1.4-1.3C32,26.8,31.3,27,31,27.6c-0.3,0.6-0.3,1.2-0.4,1.8c0,1-0.1,2,0.2,3c0.2,0.6,0.5,1.2,1.3,1.3
				C33.1,33.7,33.7,33.3,34,32.4z"/>
			<path class="st1" d="M34.2,30c0,0.7,0,1.6-0.2,2.4c-0.2,0.9-0.9,1.3-1.8,1.2c-0.8-0.1-1.2-0.6-1.3-1.3c-0.3-1-0.2-2-0.2-3
				c0-0.6,0.1-1.2,0.4-1.8c0.3-0.6,0.9-0.9,1.5-0.8c0.8,0.1,1.2,0.5,1.4,1.3c0.1,0.3,0.1,0.6,0.2,0.9C34.2,29.3,34.2,29.6,34.2,30z"
				/>
			<path class="st5" d="M32.1,8.4c0,0.2,0.1,0.3,0.1,0.4c-0.1,0.7,0,1.5-0.1,2.2c-0.1,0.4-0.1,0.9-0.2,1.3c-0.1,0.3-0.1,0.6-0.2,0.9
				c-0.1,0.4-0.3,0.8-0.5,1.1c-0.2,0.4-0.4,0.8-0.7,1.1c-0.3,0.5-0.6,0.9-0.8,1.3c-0.2,0.3-0.4,0.5-0.6,0.8
				c-0.7,0.8-1.4,1.6-2.1,2.3c-0.1,0.1-0.3,0.2-0.4,0.3c0,0,0,0,0-0.1c0.1-0.1,0.2-0.2,0.3-0.3c0.4-0.4,0.8-0.8,1.2-1.2
				c0.2-0.2,0.4-0.4,0.5-0.7c0.2-0.2,0.4-0.4,0.5-0.6c0.3-0.5,0.7-1,1-1.5c0.4-0.6,0.8-1.2,1-1.9c0.3-0.7,0.6-1.4,0.7-2.2
				C32,11.1,32,10.3,32,9.4c0-0.1,0-0.2,0.1-0.3c0-0.1,0.1-0.2,0-0.3c-0.1-0.5,0-0.9-0.1-1.4C32,7,32,6.5,31.9,6.1
				c0-0.1,0-0.3,0-0.4c0,0,0,0,0-0.1c0,0.4,0.1,0.8,0.1,1.2C32.1,7.4,32.1,7.9,32.1,8.4z"/>
			<path class="st5" d="M32.1,8.8c0,0.1,0,0.2,0,0.3C32,9.2,32,9.3,32,9.4c0,0.8,0,1.6-0.2,2.5c-0.1,0.8-0.4,1.5-0.7,2.2
				c-0.3,0.6-0.7,1.3-1,1.9c-0.3,0.5-0.7,1-1,1.5c-0.2,0.2-0.4,0.4-0.5,0.6c-0.2,0.2-0.3,0.5-0.5,0.7c-0.4,0.4-0.8,0.8-1.2,1.2
				c-0.1,0.1-0.3,0.1-0.3,0.3c0-0.4,0.1-0.8,0.1-1.3c0-0.4,0-0.7,0-1.1c0-0.9,0.1-1.7,0.2-2.6c0.3-2.5,1.2-4.8,2.6-6.9
				c0.5-0.8,1.1-1.5,1.8-2.1c0.2-0.2,0.4-0.3,0.6-0.6c0,0.1,0,0.3,0,0.4C32,6.5,32,7,32,7.4C32.1,7.9,32,8.4,32.1,8.8z"/>
			<path class="st6" d="M31.9,5.6C31.9,5.6,31.9,5.6,31.9,5.6C31.9,5.7,31.9,5.7,31.9,5.6C31.9,5.7,31.9,5.7,31.9,5.6
				C31.9,5.7,31.9,5.6,31.9,5.6z"/>
			<path class="st5" d="M31.9,5.7C31.9,5.7,31.9,5.7,31.9,5.7C31.9,5.7,31.9,5.7,31.9,5.7C31.9,5.7,31.9,5.7,31.9,5.7z"/>
			<path class="st6" d="M31.9,5.6C31.9,5.6,31.9,5.7,31.9,5.6C31.9,5.7,31.9,5.7,31.9,5.6c-0.8,0.6-1.4,1.2-1.9,1.9
				c-1.1,1.4-1.9,3-2.5,4.7c-0.6,1.7-0.8,3.5-0.9,5.4c-0.1,0.8,0,1.5-0.1,2.3c0,0.1,0,0.3,0,0.4c0,0,0,0,0,0c0,0,0,0,0,0.1
				c-0.6,0.5-1.3,1-1.9,1.5c-0.3,0.2-0.6,0.4-0.9,0.6c-0.1-0.1-0.2-0.2,0.1-0.3c0,0,0.1-0.1,0.1-0.1c0.3-0.6,0.5-1.2,0.7-1.8
				c0.2-0.7,0.3-1.5,0.5-2.2c0.1-0.5,0.1-1,0.1-1.6c0-1-0.1-1.9-0.2-2.9c-0.1-0.7-0.2-1.4-0.4-2c-0.2-0.7-0.4-1.3-0.6-2
				c-0.2-0.6-0.6-1.2-0.9-1.8c-0.1-0.1-0.1-0.2-0.3-0.2c0-0.1,0.1-0.1,0.1-0.2c0.4-0.6,0.7-1.2,1.1-1.8c0.5-0.7,1.1-1.4,1.7-2.1
				c0.5-0.6,1.2-1.2,1.8-1.7C28.2,1.1,29.1,0.5,30,0C30.2,0,30.3,0,30.3,0.2C30.6,0.8,30.8,1.4,31,2c0.2,0.6,0.4,1.2,0.5,1.8
				C31.7,4.4,31.8,5,31.9,5.6z"/>
			<path class="st5" d="M31.9,5.7C31.9,5.7,31.9,5.7,31.9,5.7c-0.2,0.3-0.4,0.4-0.6,0.6c-0.7,0.6-1.3,1.3-1.8,2.1
				c-1.4,2.1-2.3,4.4-2.6,6.9c-0.1,0.8-0.2,1.7-0.2,2.6c0,0.4,0,0.7,0,1.1c0,0.4,0,0.8-0.1,1.3c0,0,0,0,0,0c-0.1-0.1,0-0.3,0-0.4
				c0.1-0.8,0-1.5,0.1-2.3c0.1-1.8,0.3-3.6,0.9-5.4c0.6-1.7,1.4-3.3,2.5-4.7C30.5,6.8,31.1,6.2,31.9,5.7z"/>
			<path class="st0" d="M27.6,33.6c0.1,0,0.2,0,0.2,0.2c0,0.6,0,0.6-0.6,0.6c-1.2,0-2.4,0-3.6,0c-0.2,0-0.2,0-0.2-0.2
				c0-0.6,0-0.6,0.6-0.6c0.3,0,0.6,0,0.9,0c0.2,0,0.2-0.1,0.2-0.3c0-1.7,0-3.4,0-5.1c0-0.2,0-0.2-0.2-0.2c-0.4,0-0.9,0-1.3,0
				c-0.1,0-0.2,0-0.2-0.2c0-0.5,0-0.5,0.5-0.5c0.3,0,0.6-0.1,0.8-0.2c0.3-0.1,0.5-0.4,0.6-0.7c0-0.2,0.1-0.3,0.3-0.3
				c0.5,0,0.5,0,0.5,0.6c0,1.1,0,2.1,0,3.2c0,1.2,0,2.3,0,3.5c0,0.2,0.1,0.3,0.3,0.3C26.8,33.6,27.2,33.6,27.6,33.6z"/>
			<path class="st5" d="M26.5,20.3C26.5,20.3,26.5,20.3,26.5,20.3C26.5,20.3,26.5,20.3,26.5,20.3C26.5,20.3,26.5,20.3,26.5,20.3z"/>
			<path class="st6" d="M26.5,20.3C26.5,20.3,26.5,20.3,26.5,20.3C26.5,20.3,26.5,20.3,26.5,20.3C26.5,20.3,26.5,20.3,26.5,20.3
				C26.5,20.3,26.5,20.3,26.5,20.3z"/>
			<path class="st7" d="M25,13.6c0.1,1,0.2,1.9,0.2,2.9c0,0.5,0,1.1-0.1,1.6c-0.1,0.8-0.2,1.5-0.5,2.2c-0.2,0.6-0.4,1.2-0.7,1.8
				c0,0.1-0.1,0.1-0.1,0.1c-0.2,0.1-0.1,0.2-0.1,0.3c-0.2-0.1-0.2-0.2,0-0.3c0.2-0.2,0.3-0.4,0.3-0.6c0.3-0.7,0.5-1.3,0.7-2
				c0.3-1.2,0.4-2.5,0.4-3.8c0-1.2-0.2-2.4-0.4-3.6c-0.2-0.7-0.4-1.4-0.6-2c-0.2-0.5-0.4-1.1-0.7-1.5c-0.1-0.2-0.2-0.3-0.3-0.5
				c-0.1-0.1-0.2-0.3-0.3-0.3c0,0,0,0,0,0c0.2,0,0.2,0.1,0.3,0.2c0.3,0.6,0.6,1.2,0.9,1.8c0.3,0.6,0.5,1.3,0.6,2
				C24.7,12.3,24.9,12.9,25,13.6z"/>
			<path class="st7" d="M25.1,15.7c0,1.3-0.1,2.5-0.4,3.8c-0.2,0.7-0.4,1.4-0.7,2c-0.1,0.2-0.1,0.5-0.3,0.6c-0.2,0.1-0.2,0.2,0,0.3
				c-0.1,0-0.1,0.1-0.2,0.1c-0.4-0.7-0.7-1.4-1-2.1c-0.4-1.1-0.7-2.1-1-3.2c-0.1-0.5-0.2-1-0.2-1.4c-0.1-0.4-0.1-0.9-0.1-1.3
				c0-0.9,0.1-1.8,0.2-2.8c0.1-0.7,0.3-1.4,0.5-2.2c0.1-0.5,0.4-1,0.6-1.5c0-0.1,0.1-0.2,0.1-0.4C22.9,7.8,23,7.9,23.1,8
				c0.1,0.2,0.2,0.4,0.3,0.5c0.3,0.5,0.5,1,0.7,1.5c0.2,0.7,0.4,1.3,0.6,2C24.9,13.3,25,14.5,25.1,15.7z"/>
			<path class="st8" d="M24.3,43.6c0.4,0.7,0.4,0.5-0.3,0.8c-0.9,0.3-1.8,0.5-2.7,0.7c-1.4,0.3-2.9,0.5-4.4,0.5
				c-1.8,0.1-3.5-0.1-5.2-0.5c-2.2-0.5-4.2-1.5-6-2.9c-1.6-1.3-2.9-2.8-3.9-4.6c-0.2-0.4-0.5-0.9-0.7-1.3c0,0,0-0.1-0.1-0.1
				c0,0,0-0.1,0-0.1c0.5-0.2,0.9-0.4,1.4-0.6c1.1-0.4,2.2-0.6,3.4-0.7c0.1,0,0.2,0,0.3,0c0,0.2,0.2,0.3,0.3,0.4
				C6.6,35.6,7,36,7.4,36.3c0.2,0.1,0.3,0.3,0.5,0.4c0.2,0.2,0.5,0.2,0.7,0.4c0.5,0.4,1,0.6,1.6,0.9c0.2,0.1,0.4,0.2,0.6,0.2
				c0.2,0,0.3,0.2,0.6,0.2c0.1,0,0.1,0,0.1,0.1c0,0,0.1,0.1,0.1,0.1c0.3,0,0.6,0.1,0.8,0.2c0.5,0.2,1,0.3,1.4,0.4
				c0.2,0,0.3,0,0.5,0.1c0.4,0.1,0.8,0.2,1.2,0.2c0,0,0.1,0,0.1,0c0.4,0.2,0.8,0.1,1.2,0.2c1,0.1,2.1,0,3.1,0c0.2,0,0.4-0.1,0.6-0.1
				c0.1,0,0.1-0.1,0.1-0.2c0,0,0,0,0.1,0c0.3,0.3,0.5,0.6,0.8,0.8C22.6,41.2,23.5,42.4,24.3,43.6z"/>
			<path class="st7" d="M23.5,22.6c-0.2-0.1-0.2-0.2-0.3-0.4c-0.3-0.6-0.6-1.3-0.8-1.9c-0.3-0.7-0.5-1.5-0.7-2.2
				c-0.1-0.5-0.2-1-0.3-1.5c-0.1-0.3-0.1-0.6-0.1-0.9c0-0.6-0.1-1.2-0.1-1.9c0-0.4,0-0.7,0.1-1.1c0.1-0.5,0.1-1,0.2-1.5
				c0.1-0.4,0.3-0.9,0.4-1.3c0.2-0.7,0.5-1.4,0.8-2.1c0-0.1,0.1-0.1,0.1-0.1c0,0,0,0,0,0c0,0,0,0,0,0c0,0.1-0.1,0.2-0.1,0.4
				c-0.2,0.5-0.5,1-0.6,1.5c-0.2,0.7-0.4,1.4-0.5,2.2c-0.1,0.9-0.2,1.8-0.2,2.8c0,0.4,0,0.9,0.1,1.3c0.1,0.5,0.1,1,0.2,1.4
				c0.2,1.1,0.6,2.2,1,3.2C22.8,21.2,23.1,21.9,23.5,22.6z"/>
			<path class="st9" d="M23.2,22.2c0.1,0.1,0.1,0.3,0.3,0.4c-0.5,0.7-1,1.4-1.4,2.2c-0.3,0.5-0.7,1.1-1.1,1.6
				c-0.1,0.2-0.3,0.4-0.4,0.6c-0.1-0.4,0.2-0.8,0.1-1.2c0,0,0,0,0,0c0.2-0.3,0.1-0.7,0.2-1.1c0.1-0.5,0-1.1-0.1-1.7
				c0-0.6-0.1-1.1-0.1-1.7c0-0.2,0-0.4-0.1-0.6c-0.2-0.4-0.1-0.8-0.3-1.2c-0.1-0.2-0.1-0.4-0.2-0.6c-0.1-0.2-0.2-0.4-0.2-0.7
				c0-0.4-0.2-0.7-0.3-1.1c-0.1-0.2-0.2-0.5-0.3-0.7c-0.2-0.3-0.3-0.6-0.5-0.9c-0.3-0.4-0.5-0.8-0.8-1.2c-0.2-0.2-0.4-0.5-0.6-0.7
				c-0.3-0.4-0.6-0.8-1-1.1c-0.1-0.2-0.3-0.3-0.4-0.5c-0.1-0.2-0.2-0.4-0.5-0.4c0-0.1,0-0.1,0-0.2c0.2-0.1,0.1-0.3,0.2-0.4
				c0.4-1,0.8-1.9,1.3-2.8c0.4-0.7,0.8-1.5,1.2-2.2c0.4-0.7,0.8-1.4,1.3-2C19.7,4,19.9,3.8,20,3.6c0-0.1,0.1,0,0.2,0
				c0.3,0.3,0.6,0.7,0.8,1c0.4,0.6,0.8,1.1,1.1,1.7c0.2,0.4,0.5,0.7,0.7,1.1c0,0,0,0,0.1,0c-0.1,0.1-0.2,0.1-0.1,0.2
				c0,0-0.1,0.1-0.1,0.1c-0.2,0.7-0.6,1.4-0.8,2.1c-0.1,0.4-0.2,0.9-0.4,1.3c-0.1,0.5-0.2,1-0.2,1.5c-0.1,0.4-0.1,0.7-0.1,1.1
				c0,0.6,0.1,1.2,0.1,1.9c0,0.3,0.1,0.6,0.1,0.9c0.1,0.5,0.2,1,0.3,1.5c0.2,0.8,0.4,1.5,0.7,2.2C22.7,21,22.9,21.6,23.2,22.2z"/>
			<path class="st9" d="M22.8,7.5c0,0.1-0.1,0.1-0.1,0.2c0,0,0,0,0,0C22.7,7.6,22.8,7.5,22.8,7.5z"/>
			<path class="st7" d="M22.8,7.7C22.8,7.7,22.8,7.7,22.8,7.7C22.8,7.7,22.8,7.7,22.8,7.7C22.8,7.7,22.8,7.7,22.8,7.7
				C22.8,7.7,22.8,7.7,22.8,7.7z"/>
			<path class="st10" d="M20.8,23c0,0.6,0.1,1.1,0.1,1.7c0,0.4,0,0.7-0.2,1.1c0,0,0,0,0,0c0.1,0.4-0.2,0.8-0.1,1.2
				c-0.1-0.2-0.1-0.4,0-0.5c0-0.1,0.1-0.2,0.1-0.2c0-0.4,0.1-0.8,0.1-1.1c0.1-0.4,0.1-0.9,0.1-1.3c-0.1-0.6,0-1.3-0.2-1.9
				c-0.1-0.3,0-0.6-0.1-0.8c0-0.2-0.1-0.3-0.1-0.5c-0.1-0.6-0.2-1.2-0.4-1.7c-0.2-0.5-0.3-1-0.5-1.5c-0.2-0.5-0.4-1-0.7-1.4
				c-0.2-0.4-0.5-0.9-0.8-1.3c-0.4-0.5-0.8-1-1.2-1.5c-0.4-0.4-0.8-0.8-1.1-1.2c-0.1-0.1-0.2-0.1-0.3-0.2c0,0,0,0,0,0
				c0.3,0,0.4,0.2,0.5,0.4c0.1,0.2,0.3,0.3,0.4,0.5c0.3,0.4,0.7,0.8,1,1.1c0.2,0.2,0.3,0.5,0.6,0.7c0.4,0.3,0.6,0.8,0.8,1.2
				c0.2,0.3,0.3,0.6,0.5,0.9c0.2,0.2,0.2,0.5,0.3,0.7c0.1,0.3,0.3,0.7,0.3,1.1c0,0.2,0.1,0.4,0.2,0.7c0.1,0.2,0.1,0.4,0.2,0.6
				c0.2,0.4,0.1,0.8,0.3,1.2c0.1,0.2,0.1,0.4,0.1,0.6C20.7,21.9,20.8,22.4,20.8,23z"/>
			<path class="st11" d="M20.8,39.3C20.8,39.3,20.8,39.3,20.8,39.3C20.8,39.3,20.8,39.3,20.8,39.3C20.8,39.3,20.8,39.3,20.8,39.3z"
				/>
			<path class="st11" d="M20.8,39.1c0,0.1,0,0.1,0,0.2c0,0,0,0-0.1,0c-0.2-0.2-0.5-0.5-0.7-0.7c-0.8-0.7-1.6-1.3-2.5-1.7
				c-0.7-0.4-1.3-0.6-2.1-0.9c-0.8-0.3-1.6-0.6-2.5-0.8c-1-0.2-2.1-0.4-3.1-0.5c-1-0.1-2-0.1-3,0c-0.3,0-0.5,0-0.8,0.1c0,0,0,0,0,0
				c-0.1-0.1-0.2,0.1-0.3,0c0.1,0,0.2-0.1,0.1-0.2C4.6,33.3,3.7,31.7,3,30c-0.5-1.1-0.9-2.3-1.2-3.5c-0.1-0.2-0.1-0.4-0.1-0.6
				c0-0.2,0-0.2,0.2-0.2c1.3,0,2.7,0,4,0.2c0.1,0,0.1,0,0.2,0v0c0,0.1,0,0.1,0.1,0.1c0,0,0,0,0,0c0,0.3,0.1,0.5,0.2,0.7
				C6.7,27.4,7,28,7.3,28.5c0.3,0.5,0.6,0.9,0.9,1.3C8.6,30.3,9,30.6,9.3,31c0.6,0.6,1.4,1.2,2.1,1.6c0.6,0.4,1.2,0.7,1.9,1.1
				c0.6,0.3,1.2,0.5,1.8,0.7c0.2,0.1,0.3,0.2,0.5,0.2c0.4,0,0.7,0.3,1.1,0.4c0.3,0.1,0.5,0.2,0.8,0.2c0.3,0.1,0.6,0.2,0.9,0.2
				c0.4,0.1,0.7,0.3,1.1,0.3c0.3,0.6,0.6,1.3,0.8,2C20.5,38.2,20.7,38.7,20.8,39.1z"/>
			<path class="st10" d="M20.8,23.8c0.1,0.4,0,0.9-0.1,1.3c-0.1,0.4-0.2,0.7-0.1,1.1c0,0.1,0,0.2-0.1,0.2c0,0.2-0.1,0.4,0,0.5
				c0,0.1-0.1,0.2-0.2,0.2c-0.2-0.3-0.4-0.6-0.7-0.8c-0.7-0.7-1.2-1.5-1.8-2.3c-0.1-0.2-0.2-0.4-0.4-0.6c-0.3-0.5-0.6-1-0.8-1.5
				c-0.2-0.5-0.4-0.9-0.6-1.4c-0.2-0.6-0.4-1.2-0.6-1.8c-0.1-0.5-0.2-1-0.3-1.5c-0.1-0.6-0.2-1.2-0.2-1.8c0-0.4,0-0.8,0-1.2
				c0-0.4,0.1-0.7,0.1-1.1c0.1-0.4,0.2-0.8,0.3-1.2c0-0.1,0-0.1,0-0.2c0.1,0.1,0.2,0.1,0.3,0.2c0.3,0.4,0.7,0.8,1.1,1.2
				c0.4,0.5,0.8,1,1.2,1.5c0.3,0.4,0.6,0.8,0.8,1.3c0.3,0.5,0.5,0.9,0.7,1.4c0.2,0.5,0.3,1,0.5,1.5c0.2,0.6,0.3,1.2,0.4,1.7
				c0,0.2,0.1,0.3,0.1,0.5c0.1,0.3,0,0.6,0.1,0.8C20.8,22.5,20.7,23.1,20.8,23.8z"/>
			<path class="st12" d="M20.8,39.3C20.8,39.3,20.8,39.3,20.8,39.3C20.8,39.3,20.8,39.3,20.8,39.3C20.8,39.3,20.8,39.3,20.8,39.3
				C20.8,39.3,20.8,39.3,20.8,39.3z"/>
			<path class="st12" d="M20.8,39.3C20.8,39.3,20.8,39.3,20.8,39.3c0,0.1,0,0.2-0.1,0.2c-0.2,0-0.4,0.1-0.6,0.1c-1,0-2.1,0-3.1,0
				c-0.4,0-0.8,0-1.2-0.2c0,0-0.1,0-0.1,0c-0.4,0-0.8-0.1-1.2-0.2c-0.2,0-0.3-0.1-0.5-0.1c-0.5-0.1-1-0.2-1.4-0.4
				c-0.3-0.1-0.5-0.2-0.8-0.2c-0.1,0-0.1,0-0.1-0.1c0,0,0-0.1-0.1-0.1c-0.2,0-0.4-0.1-0.6-0.2c-0.2-0.1-0.4-0.1-0.6-0.2
				c-0.5-0.3-1.1-0.5-1.6-0.9c-0.2-0.2-0.5-0.2-0.7-0.4c-0.2-0.1-0.3-0.3-0.5-0.4C7,36,6.6,35.6,6.3,35.2C6.2,35.1,6,35,6,34.8
				c0,0,0,0,0,0c0.2,0.3,0.5,0.6,0.8,0.9c0.2,0.1,0.3,0.3,0.5,0.5c0.3,0.3,0.6,0.5,1,0.7c0.7,0.4,1.3,0.8,2,1.1
				c0.3,0.1,0.6,0.3,0.9,0.3c0.2,0,0.3,0.2,0.5,0.2c0.8,0.2,1.5,0.5,2.3,0.6c0.5,0.1,1,0.2,1.5,0.2c0.4,0,0.8,0,1.2,0.1
				c0.1,0,0.2,0,0.2,0c1,0,1.9,0,2.9,0C20.2,39.5,20.5,39.5,20.8,39.3z"/>
			<path class="st12" d="M20.8,39.3C20.8,39.3,20.8,39.3,20.8,39.3C20.8,39.3,20.8,39.3,20.8,39.3c-0.1,0-0.2-0.1-0.3-0.2
				c-0.8-0.8-1.7-1.4-2.7-2c-0.8-0.5-1.7-0.9-2.6-1.2c-0.8-0.3-1.7-0.5-2.5-0.7c-1.1-0.2-2.2-0.4-3.4-0.5c-1-0.1-2,0-3,0.1
				c-0.1,0-0.1,0-0.2,0c0,0,0,0,0,0c0.3-0.1,0.5-0.1,0.8-0.1c1-0.1,2-0.1,3,0c1.1,0.1,2.1,0.2,3.1,0.5c0.8,0.2,1.7,0.4,2.5,0.8
				c0.7,0.3,1.4,0.6,2.1,0.9c0.9,0.5,1.8,1.1,2.5,1.7C20.3,38.8,20.6,39.1,20.8,39.3z"/>
			<path class="st12" d="M20.5,39.1c0.1,0.1,0.2,0.2,0.3,0.2c-0.3,0.2-0.5,0.2-0.8,0.2c-1,0-1.9,0-2.9,0c-0.1,0-0.2,0-0.2,0
				c-0.4-0.1-0.8-0.1-1.2-0.1c-0.5-0.1-1-0.1-1.5-0.2c-0.8-0.1-1.6-0.4-2.3-0.6c-0.2,0-0.3-0.2-0.5-0.2c-0.3,0-0.6-0.2-0.9-0.3
				c-0.7-0.3-1.4-0.7-2-1.1c-0.4-0.2-0.7-0.5-1-0.7c-0.2-0.2-0.3-0.3-0.5-0.5c-0.3-0.3-0.6-0.6-0.8-0.9c0.1,0,0.1,0,0.2,0
				c1-0.1,2-0.1,3-0.1c1.1,0.1,2.3,0.2,3.4,0.5c0.9,0.2,1.7,0.4,2.5,0.7c0.9,0.3,1.8,0.7,2.6,1.2C18.8,37.7,19.7,38.3,20.5,39.1z"/>
			<path class="st13" d="M20.4,27.2c0,0.3-0.1,0.6-0.2,0.9c-0.2,0.8-0.5,1.5-0.7,2.3c-0.1,0.2-0.1,0.5-0.3,0.6
				c-0.1-0.2-0.2-0.4-0.2-0.6c0-0.4-0.1-0.7-0.2-1c-0.1-0.5-0.3-1-0.4-1.5c-0.1-0.5-0.4-1-0.6-1.5c0-0.1,0-0.2-0.1-0.3
				c-0.3-0.4-0.5-1-0.8-1.4c-0.4-0.6-0.8-1.3-1.3-1.9c-0.3-0.3-0.5-0.7-0.8-0.9c-0.2-0.2-0.4-0.4-0.5-0.6c-0.2-0.2-0.5-0.4-0.8-0.6
				c-0.4-0.3-0.7-0.5-1.1-0.7c-0.6-0.3-1.1-0.6-1.7-0.9c-0.2-0.1-0.5-0.1-0.7-0.3c0,0-0.1,0-0.2,0c0,0,0,0,0,0c0,0,0-0.1-0.1-0.1
				c0-0.9,0-1.8,0-2.6c0-0.7,0.1-1.5,0.2-2.2c0.1-0.8,0.3-1.7,0.5-2.5c0.2-0.8,0.5-1.7,0.9-2.5c0.1-0.2,0.1-0.3,0.3-0.1
				c0.7,0.5,1.4,1,2.1,1.5c0.5,0.4,1,0.8,1.4,1.2c0,0,0.1,0,0.1,0.1c0,0.1,0,0.1,0,0.2c0,0,0,0,0,0c-0.1,0.3-0.1,0.6-0.2,0.8
				c-0.2,0.4-0.2,0.9-0.2,1.3c0,0.9-0.1,1.7,0,2.6c0.1,0.5,0.1,0.9,0.2,1.4c0.1,0.3,0.1,0.7,0.2,1c0.1,0.4,0.2,0.7,0.3,1.1
				c0.1,0.5,0.3,0.9,0.5,1.4c0.2,0.4,0.3,0.9,0.6,1.3c0.2,0.3,0.3,0.5,0.4,0.8c0.3,0.4,0.5,0.8,0.8,1.2c0.3,0.4,0.6,0.9,1,1.3
				c0.3,0.3,0.6,0.6,0.8,0.9C20.2,27,20.3,27.1,20.4,27.2z"/>
			<path class="st10" d="M20.4,27.2c-0.1-0.1-0.2-0.2-0.3-0.3c-0.3-0.3-0.5-0.6-0.8-0.9c-0.4-0.4-0.7-0.9-1-1.3
				c-0.3-0.4-0.5-0.8-0.8-1.2c-0.2-0.3-0.3-0.5-0.4-0.8c-0.3-0.4-0.4-0.8-0.6-1.3c-0.2-0.5-0.4-0.9-0.5-1.4
				c-0.1-0.4-0.2-0.7-0.3-1.1c-0.1-0.3-0.2-0.7-0.2-1c-0.1-0.5-0.1-1-0.2-1.4c-0.1-0.9-0.1-1.7,0-2.6c0-0.4,0.1-0.9,0.2-1.3
				c0.1-0.3,0.2-0.6,0.2-0.8c0,0,0,0,0,0c0,0.1,0,0.1,0,0.2c-0.1,0.4-0.2,0.8-0.3,1.2c0,0.4-0.1,0.7-0.1,1.1c0,0.4,0,0.8,0,1.2
				c0,0.6,0.1,1.2,0.2,1.8c0.1,0.5,0.2,1,0.3,1.5c0.2,0.6,0.3,1.2,0.6,1.8c0.2,0.5,0.4,0.9,0.6,1.4c0.2,0.5,0.5,1,0.8,1.5
				c0.1,0.2,0.2,0.4,0.4,0.6c0.5,0.8,1.1,1.6,1.8,2.3C20,26.6,20.2,26.9,20.4,27.2z"/>
			<path class="st14" d="M19.5,32.9c0,0.8,0.1,1.5,0,2.3c0,0.1,0,0.3,0,0.4h0c0,0-0.1-0.1-0.1-0.1c-0.2-0.3-0.3-0.7-0.5-1
				c-0.3-0.5-0.6-1-0.9-1.5c-0.6-0.9-1.3-1.6-2.1-2.3c-0.9-0.8-1.9-1.6-3-2.2c-0.7-0.4-1.5-0.9-2.3-1.2c-0.7-0.3-1.3-0.5-2-0.7
				c-0.7-0.2-1.5-0.3-2.2-0.4c-0.1,0-0.2-0.1-0.3,0.1C6.1,26.1,6,26,6,26v0c-0.1-0.3-0.1-0.5-0.2-0.8c-0.1-0.4-0.2-0.7-0.3-1.1
				c-0.1-0.4-0.2-0.8-0.2-1.2c-0.1-0.2-0.1-0.5-0.1-0.7c0-0.4-0.1-0.7-0.1-1.1c-0.1-0.8-0.1-1.6-0.2-2.4c-0.1-0.5,0-1.1,0-1.6
				c0-0.1,0-0.1,0.1-0.1c0.4,0.1,0.8,0.2,1.3,0.4c0.4,0.1,0.8,0.2,1.2,0.4c0.4,0.1,0.7,0.2,1,0.4c0.4,0.2,0.9,0.3,1.3,0.5
				c0.1,0,0.1,0,0.2,0c0,0,0,0.1,0,0.1c0,0.5,0.1,0.9,0.2,1.4c0,0.2,0,0.3,0.1,0.5c0.1,0.2,0.2,0.4,0.2,0.6c0.1,0.4,0.3,0.9,0.4,1.3
				c0.3,0.6,0.6,1.1,0.9,1.7c0.5,0.9,1.1,1.7,1.8,2.5c0.8,0.9,1.6,1.7,2.5,2.4c0.5,0.4,1,0.8,1.5,1.1c0.2,0.2,0.5,0.3,0.7,0.5
				c0.3,0.2,0.5,0.3,0.8,0.4C19.3,31.6,19.4,32.2,19.5,32.9C19.5,32.8,19.5,32.8,19.5,32.9z"/>
			<path class="st15" d="M19.5,35.6c0,0,0,0.1,0,0.1c0,0-0.1-0.1-0.1-0.1c-0.5,0-0.9-0.2-1.4-0.3c-0.9-0.2-1.8-0.6-2.7-0.8
				c-0.2-0.1-0.4-0.2-0.6-0.3c-0.5-0.1-0.9-0.4-1.4-0.6c-0.3-0.2-0.7-0.3-1-0.5c-0.3-0.2-0.6-0.3-0.8-0.5c-0.5-0.3-1-0.6-1.4-1
				c-0.3-0.3-0.7-0.6-1-0.9c-0.5-0.5-0.9-0.9-1.3-1.5c-0.3-0.5-0.7-1-1-1.5c-0.3-0.5-0.5-1.1-0.8-1.7c0.1,0,0.2-0.1,0.3,0
				c0.5,0.1,1,0.1,1.4,0.2c0.3,0.1,0.5,0.1,0.8,0.2c0.8,0.2,1.6,0.6,2.3,0.9c0.5,0.2,0.9,0.5,1.4,0.7c0.8,0.5,1.5,0.9,2.2,1.5
				c1,0.8,1.9,1.6,2.7,2.6c0.5,0.6,0.9,1.1,1.2,1.7c0.3,0.5,0.6,1,0.8,1.5C19.3,35.5,19.4,35.6,19.5,35.6L19.5,35.6z"/>
			<path class="st15" d="M19.5,35.6c-0.1,0-0.2-0.1-0.2-0.2c-0.2-0.5-0.5-1-0.8-1.5c-0.4-0.6-0.8-1.2-1.2-1.7
				c-0.8-1-1.7-1.8-2.7-2.6c-0.7-0.6-1.5-1-2.2-1.5c-0.4-0.3-0.9-0.5-1.4-0.7c-0.8-0.3-1.5-0.7-2.3-0.9c-0.3-0.1-0.5-0.1-0.8-0.2
				c-0.5-0.1-1-0.1-1.4-0.2c-0.1,0-0.2,0-0.3,0c0,0,0,0,0,0c0-0.2,0.2-0.1,0.3-0.1c0.7,0.1,1.5,0.2,2.2,0.4c0.7,0.2,1.3,0.5,2,0.7
				c0.8,0.3,1.6,0.8,2.3,1.2c1.1,0.6,2,1.4,3,2.2c0.8,0.7,1.5,1.5,2.1,2.3c0.3,0.5,0.6,1,0.9,1.5C19.1,34.8,19.2,35.1,19.5,35.6
				C19.4,35.5,19.4,35.6,19.5,35.6z"/>
			<path class="st15" d="M19.5,35.7c-0.4,0-0.8-0.2-1.1-0.3c-0.3,0-0.6-0.2-0.9-0.2C17.2,35.2,17,35,16.7,35
				c-0.4-0.1-0.7-0.3-1.1-0.4c-0.2,0-0.3-0.1-0.5-0.2c-0.6-0.3-1.2-0.5-1.8-0.7c-0.6-0.3-1.3-0.7-1.9-1.1c-0.8-0.5-1.5-1-2.1-1.6
				c-0.4-0.4-0.7-0.7-1.1-1.1c-0.3-0.4-0.7-0.9-0.9-1.3C7,28,6.7,27.4,6.4,26.8c-0.1-0.2-0.2-0.5-0.2-0.7c0,0,0,0,0,0
				c0.3,0.6,0.5,1.1,0.8,1.7c0.3,0.5,0.6,1,1,1.5c0.4,0.6,0.8,1,1.3,1.5c0.3,0.3,0.6,0.6,1,0.9c0.5,0.4,0.9,0.7,1.4,1
				c0.3,0.2,0.6,0.3,0.8,0.5c0.3,0.2,0.6,0.4,1,0.5c0.4,0.2,0.9,0.4,1.4,0.6c0.2,0.1,0.4,0.2,0.6,0.3c0.9,0.2,1.8,0.6,2.7,0.8
				c0.5,0.1,0.9,0.3,1.4,0.3C19.4,35.6,19.5,35.6,19.5,35.7z"/>
			<path class="st16" d="M19.2,31C19.2,31,19.2,31.1,19.2,31c-0.1,0-0.2-0.1-0.3-0.2c-0.5-0.3-1-0.6-1.5-0.9c-0.9-0.6-1.7-1.3-2.5-2
				c-0.7-0.7-1.4-1.5-2-2.3c-0.6-0.8-1.1-1.7-1.5-2.6c-0.3-0.6-0.5-1.2-0.7-1.9c-0.2-0.8-0.4-1.6-0.5-2.4c0.1,0.1,0.3,0.2,0.4,0.2
				c0.4,0,0.7,0.2,1,0.4c0.5,0.2,0.9,0.5,1.3,0.8c0.5,0.3,0.9,0.7,1.4,1c0.3,0.2,0.5,0.5,0.7,0.7c0.4,0.3,0.7,0.8,1,1.2
				c0.4,0.4,0.7,0.9,1,1.4c0.4,0.6,0.7,1.2,1,1.9c0.1,0.4,0.4,0.7,0.5,1.1c0.1,0.2,0.1,0.4,0.2,0.6c0.2,0.7,0.5,1.4,0.5,2.2
				C19,30.6,19,30.8,19.2,31z"/>
			<path class="st16" d="M19,30.4c0,0.2,0.1,0.4,0.2,0.6C19,30.8,19,30.6,19,30.4c-0.1-0.8-0.3-1.5-0.6-2.2
				c-0.1-0.2-0.1-0.4-0.2-0.6c-0.1-0.4-0.3-0.7-0.5-1.1c-0.2-0.7-0.6-1.3-1-1.9c-0.3-0.5-0.6-1-1-1.4c-0.3-0.4-0.6-0.8-1-1.2
				c-0.3-0.2-0.4-0.5-0.7-0.7c-0.5-0.3-0.9-0.7-1.4-1c-0.4-0.3-0.9-0.6-1.3-0.8c-0.3-0.1-0.6-0.3-1-0.4c-0.1,0-0.3-0.1-0.4-0.2
				c0,0,0,0,0,0c0.1,0,0.1,0,0.2,0c0.2,0.2,0.4,0.2,0.7,0.3c0.6,0.2,1.1,0.6,1.7,0.9c0.4,0.2,0.8,0.5,1.1,0.7
				c0.3,0.2,0.6,0.4,0.8,0.6c0.2,0.2,0.3,0.4,0.5,0.6c0.3,0.3,0.5,0.6,0.8,0.9c0.5,0.6,0.8,1.2,1.3,1.9c0.3,0.5,0.5,1,0.8,1.4
				c0.1,0.1,0,0.2,0.1,0.3c0.2,0.5,0.5,1,0.6,1.5c0.1,0.5,0.3,1,0.4,1.5C18.9,29.7,19,30,19,30.4z"/>
			<path class="st16" d="M18.9,30.9c0.1,0.1,0.2,0.1,0.3,0.2c-0.3-0.1-0.5-0.3-0.8-0.4c-0.3-0.1-0.5-0.3-0.7-0.5
				c-0.5-0.3-1-0.7-1.5-1.1c-0.9-0.7-1.8-1.5-2.5-2.4c-0.7-0.8-1.3-1.6-1.8-2.5c-0.3-0.5-0.6-1.1-0.9-1.7c-0.2-0.4-0.3-0.8-0.4-1.3
				c0-0.2-0.1-0.4-0.2-0.6c-0.1-0.2-0.1-0.3-0.1-0.5c-0.1-0.5-0.3-0.9-0.2-1.4c0,0,0,0,0.1,0c0.1,0.8,0.3,1.6,0.5,2.4
				c0.2,0.6,0.4,1.3,0.7,1.9c0.4,0.9,0.9,1.8,1.5,2.6c0.6,0.8,1.3,1.6,2,2.3c0.8,0.7,1.6,1.4,2.5,2C17.8,30.2,18.3,30.5,18.9,30.9z"
				/>
			<path class="st10" d="M15.6,11.7C15.6,11.7,15.6,11.7,15.6,11.7C15.6,11.7,15.6,11.7,15.6,11.7L15.6,11.7
				C15.6,11.7,15.6,11.7,15.6,11.7z"/>
			<path class="st13" d="M15.6,11.5c0,0.1,0,0.1,0,0.2h0c0,0,0,0,0,0c0,0,0,0,0,0C15.5,11.6,15.5,11.6,15.6,11.5z"/>
			<path class="st16" d="M10,18.8C10,18.8,10,18.8,10,18.8C10,18.8,10,18.8,10,18.8C10,18.8,10,18.8,10,18.8z"/>
			<path class="st13" d="M10,18.8C10,18.8,10,18.8,10,18.8C10,18.8,10,18.8,10,18.8C10,18.7,10,18.7,10,18.8
				C10,18.7,10,18.7,10,18.8z"/>
			<path class="st15" d="M6.1,26.1C6.1,26.1,6.1,26.1,6.1,26.1C6.1,26.1,6.1,26.1,6.1,26.1C6.1,26.1,6.1,26.1,6.1,26.1z"/>
			<path class="st11" d="M6.1,26.1C6.1,26.1,6.1,26.1,6.1,26.1C6.1,26.1,6.1,26.1,6.1,26.1C6,26.1,6,26,6.1,26.1
				C6,26,6.1,26.1,6.1,26.1z"/>
			<path class="st12" d="M6.1,34.8C6.1,34.8,6.1,34.8,6.1,34.8C6.1,34.8,6.1,34.8,6.1,34.8C6,34.8,6.1,34.8,6.1,34.8z"/>
			<path class="st11" d="M6.1,34.8C6.1,34.8,6,34.8,6.1,34.8c-0.1,0-0.2,0.1-0.3,0C5.9,34.8,5.9,34.7,6.1,34.8
				C6.1,34.8,6.1,34.8,6.1,34.8z"/>
		</g>
		<g>
		</g>
	</g>
</g>
</svg>
