<?xml version="1.0" encoding="utf-8"?>
<!-- Generator: Adobe Illustrator 19.0.0, SVG Export Plug-In . SVG Version: 6.00 Build 0)  -->
<svg version="1.1" id="Слой_1" xmlns="http://www.w3.org/2000/svg" xmlns:xlink="http://www.w3.org/1999/xlink" x="0px" y="0px"
	 viewBox="0 0 841.9 595.3" style="enable-background:new 0 0 841.9 595.3;" xml:space="preserve">
<style type="text/css">
	.st0{display:none;}
	.st1{display:inline;}
	.st2{clip-path:url(#XMLID_151_);fill:#CCCCCC;}
	.st3{fill:#59C1EF;}
	.st4{fill:#A5A5A5;}
	.st5{fill:#353130;}
	.st6{fill:#FFFFFF;}
	.st7{fill:#E8EBEF;}
	.st8{fill:#EFEBE9;}
	.st9{fill:#24AEE4;}
	.st10{fill:#544127;}
	.st11{clip-path:url(#XMLID_152_);fill:#A5A5A5;}
	.st12{fill:#916E38;}
	.st13{clip-path:url(#XMLID_153_);fill:#A5A5A5;}
	.st14{clip-path:url(#XMLID_154_);fill:#A5A5A5;}
	.st15{fill:#C1C1C1;}
	.st16{fill:#CCCCCC;}
	.st17{clip-path:url(#XMLID_197_);fill:#A5A5A5;}
	.st18{clip-path:url(#XMLID_198_);fill:#A5A5A5;}
	.st19{fill:#043750;}
	.st20{display:inline;fill:#FFFFFF;}
	.st21{display:inline;fill:#353130;}
	.st22{display:inline;fill:#EA7927;}
	.st23{display:inline;fill:#24AEE4;}
	.st24{display:inline;fill:#1493C9;}
	.st25{display:inline;fill:#136674;}
	.st26{display:inline;fill:#1C3F73;}
	.st27{clip-path:url(#XMLID_199_);fill:#C6C5C5;}
	.st28{fill:#194626;}
	.st29{fill:#7BA842;}
	.st30{fill:#1493C9;}
	.st31{fill:#EA7927;}
	.st32{fill:#FADB05;}
	.st33{fill:#B84B44;}
	.st34{fill:#8D6C2A;}
	.st35{fill:#363130;}
	.st36{fill:#1C3F73;}
	.st37{fill:#64595A;}
	.st38{fill:#6D4C41;}
	.st39{fill:#4E342E;}
	.st40{fill:#136674;}
	.st41{clip-path:url(#XMLID_200_);fill:#DDDDDC;}
	.st42{clip-path:url(#XMLID_201_);fill:#DDDDDC;}
	.st43{font-family:'Roboto-Bold';}
	.st44{font-size:6px;}
	.st45{display:none;fill:#EFEBE9;}
	.st46{display:none;fill:#929497;}
	.st47{display:none;fill:#A6A8AB;}
	.st48{display:none;fill:#808184;}
	.st49{display:none;fill:#BBBDBF;}
	.st50{display:none;fill:#6D6E70;}
	.st51{clip-path:url(#XMLID_202_);fill:#DDDDDC;}
	.st52{clip-path:url(#XMLID_203_);}
	.st53{clip-path:url(#XMLID_204_);}
	.st54{clip-path:url(#XMLID_205_);}
	.st55{font-family:'Roboto-Light';}
	.st56{font-size:140px;}
	.st57{letter-spacing:-8;}
	.st58{letter-spacing:-6;}
	.st59{letter-spacing:-9;}
	.st60{clip-path:url(#XMLID_205_);fill:#FFFFFF;}
	.st61{opacity:0.75;clip-path:url(#XMLID_205_);}
	.st62{clip-path:url(#XMLID_206_);fill:#59C1EF;}
	.st63{clip-path:url(#XMLID_207_);fill:#59C1EF;}
	.st64{clip-path:url(#XMLID_208_);fill:#59C1EF;}
	.st65{clip-path:url(#XMLID_209_);fill:#59C1EF;}
	.st66{clip-path:url(#XMLID_205_);fill:#59C1EF;}
	.st67{opacity:0.75;fill:#59C1EF;}
</style>
<g id="XMLID_167_" class="st0">
	<g id="XMLID_168_" class="st1">
		<defs>
			<rect id="XMLID_169_" x="370.2" y="358.2" width="90.6" height="3.5"/>
		</defs>
		<use xlink:href="#XMLID_169_"  style="overflow:visible;fill:#CCCCCC;"/>
		<clipPath id="XMLID_151_">
			<use xlink:href="#XMLID_169_"  style="overflow:visible;"/>
		</clipPath>
		<rect id="XMLID_170_" x="370.2" y="358.2" class="st2" width="90.6" height="3.5"/>
	</g>
</g>
<g id="XMLID_189_">
	<rect id="XMLID_191_" x="0" class="st3" width="841.4" height="595.3"/>
	<rect id="XMLID_190_" x="-0.5" y="518.6" class="st4" width="842" height="76.7"/>
</g>
<g id="XMLID_136_">
	<g id="XMLID_160_">
		<path id="XMLID_166_" class="st5" d="M61.4,350.2l-1.7-0.5c0.3-1.1,0.8-4.2-0.3-5.6c-0.4-0.5-1-0.8-1.8-0.8
			c-0.9,0-1.5,0.3-1.9,0.8c-1.2,1.4-0.8,4.5-0.6,5.6l-1.8,0.4c0-0.2-1-4.7,1-7.1c0.8-1,1.9-1.5,3.3-1.5c1.8,0,2.7,0.8,3.3,1.5
			C62.6,345.4,61.5,349.7,61.4,350.2"/>
		<rect id="XMLID_165_" x="55.7" y="409.5" class="st5" width="3.6" height="67.3"/>
		<rect id="XMLID_164_" x="40.5" y="476.5" class="st5" width="34.3" height="3.9"/>
		<rect id="XMLID_163_" x="54.1" y="405" class="st5" width="6.9" height="4.5"/>
		<path id="XMLID_162_" class="st6" d="M57.5,348.9c-15.9,0-28.8,12.9-28.8,28.8c0,15.9,12.8,28.7,28.7,28.8L57.5,348.9L57.5,348.9z
			"/>
		<path id="XMLID_161_" class="st7" d="M57.6,348.9l-0.1,57.5c0,0,0.1,0,0.1,0c15.9,0,28.8-12.9,28.8-28.8
			C86.3,361.8,73.4,348.9,57.6,348.9"/>
	</g>
	<g id="XMLID_149_">
		<rect id="XMLID_159_" x="103.3" y="448.6" class="st6" width="38.6" height="31.4"/>
		<rect id="XMLID_158_" x="106.3" y="451.7" class="st5" width="32.7" height="25.4"/>
		<path id="XMLID_157_" class="st8" d="M127.1,456c0,1.4-1.1,2.6-2.6,2.6c-1.4,0-2.6-1.1-2.6-2.6c0-1.4,1.1-2.6,2.6-2.6
			C125.9,453.4,127.1,454.6,127.1,456"/>
		<rect id="XMLID_156_" x="106.3" y="474.6" class="st9" width="32.7" height="2.4"/>
	</g>
	<rect id="XMLID_148_" x="21.5" y="551.7" class="st10" width="141.2" height="21.6"/>
	<g id="XMLID_144_">
		<g id="XMLID_145_">
			<defs>
				<rect id="XMLID_146_" x="21.5" y="551.7" width="141.2" height="4.6"/>
			</defs>
			<use xlink:href="#XMLID_146_"  style="overflow:visible;fill:#A5A5A5;"/>
			<clipPath id="XMLID_152_">
				<use xlink:href="#XMLID_146_"  style="overflow:visible;"/>
			</clipPath>
			<rect id="XMLID_147_" x="21.5" y="551.7" class="st11" width="141.2" height="4.6"/>
		</g>
	</g>
	<rect id="XMLID_143_" x="15.3" y="480.4" class="st12" width="153.4" height="71.4"/>
	<rect id="XMLID_142_" x="21.5" y="485.4" class="st10" width="140.9" height="44"/>
	<rect id="XMLID_141_" x="57.5" y="504.4" class="st6" width="68.8" height="5.9"/>
	<g id="XMLID_137_">
		<g id="XMLID_138_">
			<defs>
				<rect id="XMLID_139_" x="57.5" y="510.3" width="68.8" height="3.1"/>
			</defs>
			<use xlink:href="#XMLID_139_"  style="overflow:visible;fill:#A5A5A5;"/>
			<clipPath id="XMLID_153_">
				<use xlink:href="#XMLID_139_"  style="overflow:visible;"/>
			</clipPath>
			<rect id="XMLID_140_" x="57.5" y="510.3" class="st13" width="68.8" height="3.1"/>
		</g>
	</g>
</g>
<g id="XMLID_114_">
	<g id="XMLID_119_">
		<g id="XMLID_130_">
			<path id="XMLID_196_" class="st10" d="M227.5,491.9c-7.9,0-14.4-6.5-14.4-14.4v-57.1c0-7.9,6.5-14.4,14.4-14.4h385.8
				c7.9,0,14.4,6.5,14.4,14.4v57.1c0,7.9-6.5,14.4-14.4,14.4H227.5z"/>
			<path id="XMLID_193_" class="st12" d="M613.4,409.5c6,0,10.9,4.9,10.9,10.9v57.1c0,6-4.9,10.9-10.9,10.9H227.5
				c-6,0-10.9-4.9-10.9-10.9v-57.1c0-6,4.9-10.9,10.9-10.9H613.4 M613.4,402.5H227.5c-9.8,0-17.9,8.1-17.9,17.9v57.1
				c0,9.8,8.1,17.9,17.9,17.9h385.8c9.8,0,17.9-8.1,17.9-17.9v-57.1C631.3,410.6,623.2,402.5,613.4,402.5L613.4,402.5z"/>
		</g>
		<rect id="XMLID_129_" x="199.9" y="554" class="st10" width="441.1" height="19.9"/>
		<rect id="XMLID_128_" x="196" y="487" class="st12" width="448.9" height="66.9"/>
		<g id="XMLID_124_">
			<g id="XMLID_125_">
				<defs>
					<rect id="XMLID_126_" x="199.9" y="554" width="441.1" height="4.1"/>
				</defs>
				<use xlink:href="#XMLID_126_"  style="overflow:visible;fill:#A5A5A5;"/>
				<clipPath id="XMLID_154_">
					<use xlink:href="#XMLID_126_"  style="overflow:visible;"/>
				</clipPath>
				<rect id="XMLID_127_" x="199.9" y="554" class="st14" width="441.1" height="4.1"/>
			</g>
		</g>
		<rect id="XMLID_123_" x="193.2" y="480.4" class="st10" width="454.6" height="30.1"/>
		<rect id="XMLID_122_" x="196" y="510.4" class="st15" width="448.9" height="3.1"/>
		<path id="XMLID_121_" class="st6" d="M647.7,479.8c0-8.6-26.5-15.6-58.9-15.6H252.1c-32.4,0-58.9,7-58.9,15.6c0,0.2,0,0.4,0.1,0.6
			h454.5C647.7,480.2,647.7,480,647.7,479.8z"/>
		<path id="XMLID_120_" class="st16" d="M647.4,478H193.6c-0.6,0.8-0.4,2.4-0.4,2.4h454.6C647.8,480.4,647.8,478.5,647.4,478z"/>
	</g>
	<path id="XMLID_118_" class="st6" d="M379.5,448.8c0-7-5.7-12.6-12.6-12.6H262.3c-7,0-12.6,5.7-12.6,12.6v15.4h129.8V448.8z"/>
	<path id="XMLID_117_" class="st6" d="M583.3,448.8c0-7-5.7-12.6-12.6-12.6H466.1c-7,0-12.6,5.7-12.6,12.6v15.4h129.8V448.8z"/>
	<rect id="XMLID_116_" x="249.7" y="461.4" class="st16" width="129.8" height="2.8"/>
	<rect id="XMLID_115_" x="453.5" y="461.4" class="st16" width="129.8" height="2.8"/>
</g>
<g id="XMLID_93_">
	<rect id="XMLID_113_" x="679.4" y="551.8" class="st10" width="140.9" height="21.5"/>
	<g id="XMLID_109_">
		<g id="XMLID_110_">
			<defs>
				<rect id="XMLID_111_" x="679.4" y="551.8" width="140.9" height="4.6"/>
			</defs>
			<use xlink:href="#XMLID_111_"  style="overflow:visible;fill:#A5A5A5;"/>
			<clipPath id="XMLID_197_">
				<use xlink:href="#XMLID_111_"  style="overflow:visible;"/>
			</clipPath>
			<rect id="XMLID_112_" x="679.4" y="551.8" class="st17" width="140.9" height="4.6"/>
		</g>
	</g>
	<rect id="XMLID_108_" x="673.2" y="480.6" class="st12" width="153" height="71.2"/>
	<rect id="XMLID_107_" x="679.4" y="485.6" class="st10" width="140.6" height="43.9"/>
	<rect id="XMLID_106_" x="715.3" y="504.5" class="st6" width="68.6" height="5.9"/>
	<g id="XMLID_102_">
		<g id="XMLID_103_">
			<defs>
				<rect id="XMLID_104_" x="715.3" y="510.5" width="68.6" height="3.1"/>
			</defs>
			<use xlink:href="#XMLID_104_"  style="overflow:visible;fill:#A5A5A5;"/>
			<clipPath id="XMLID_198_">
				<use xlink:href="#XMLID_104_"  style="overflow:visible;"/>
			</clipPath>
			<rect id="XMLID_105_" x="715.3" y="510.5" class="st18" width="68.6" height="3.1"/>
		</g>
	</g>
	<g id="XMLID_98_">
		<rect id="XMLID_101_" x="695.1" y="466.2" class="st19" width="73.3" height="14.4"/>
		<rect id="XMLID_100_" x="695.1" y="468.1" class="st6" width="65.9" height="10.7"/>
		<rect id="XMLID_99_" x="695.1" y="468.1" class="st16" width="65.9" height="3.1"/>
	</g>
	<path id="XMLID_95_" class="st6" d="M714.5,439.4v3.2c0,0-0.1,0-0.1,0c-4.4,0-8,3.6-8,8v3.7c0,4.4,3.6,8,8,8c0,0,0.1,0,0.1,0v4
		h20.1v-26.8H714.5z M714.4,458.8c-2.5,0-4.5-2-4.5-4.5v-3.7c0-2.5,2-4.5,4.5-4.5c0,0,0.1,0,0.1,0L714.4,458.8
		C714.4,458.7,714.4,458.8,714.4,458.8z"/>
	<rect id="XMLID_94_" x="714.5" y="439.4" class="st16" width="20.1" height="2.3"/>
</g>
<g id="XMLID_2_">
	<g id="XMLID_81_" class="st0">
		<rect id="XMLID_92_" x="130.1" y="266.6" class="st20" width="73.8" height="60.1"/>
		<rect id="XMLID_91_" x="135.7" y="272.4" class="st21" width="62.5" height="48.5"/>
		<path id="XMLID_90_" class="st22" d="M185.6,286.5c0,4.7-3.8,8.4-8.4,8.4c-4.7,0-8.4-3.8-8.4-8.4c0-4.7,3.8-8.4,8.4-8.4
			C181.8,278.1,185.6,281.9,185.6,286.5"/>
		<rect id="XMLID_89_" x="169.9" y="316.2" class="st23" width="28.3" height="4.7"/>
		<polygon id="XMLID_88_" class="st24" points="150.2,320.9 164.5,296.2 178.7,320.9 		"/>
		<polygon id="XMLID_87_" class="st25" points="150.2,290.2 135.7,315.3 135.7,320.9 167.9,320.9 		"/>
		<polygon id="XMLID_86_" class="st26" points="177.1,301.7 166.1,320.9 168,320.9 188.2,320.9 		"/>
		<g id="XMLID_82_" class="st1">
			<g id="XMLID_83_">
				<defs>
					<rect id="XMLID_84_" x="167" y="266.6" width="36.9" height="60.1"/>
				</defs>
				<clipPath id="XMLID_199_">
					<use xlink:href="#XMLID_84_"  style="overflow:visible;"/>
				</clipPath>
				<rect id="XMLID_85_" x="167" y="266.6" class="st27" width="36.9" height="60.1"/>
			</g>
		</g>
	</g>
	<rect id="XMLID_80_" x="383.1" y="262" class="st12" width="71.8" height="16.8"/>
	<rect id="XMLID_79_" x="418" y="319.6" class="st28" width="66.1" height="8.8"/>
	<rect id="XMLID_78_" x="386.3" y="312.4" class="st29" width="66.1" height="7.2"/>
	<rect id="XMLID_77_" x="378" y="303.9" class="st30" width="75" height="8.4"/>
	<rect id="XMLID_76_" x="395.6" y="296.6" class="st31" width="75" height="7.3"/>
	<rect id="XMLID_75_" x="416.4" y="298.6" class="st6" width="41" height="3.5"/>
	<rect id="XMLID_74_" x="409.3" y="296.6" class="st32" width="1.7" height="7.3"/>
	<rect id="XMLID_73_" x="463.5" y="296.6" class="st32" width="1.7" height="7.3"/>
	<rect id="XMLID_72_" x="426.5" y="323" class="st6" width="16.1" height="1.9"/>
	<rect id="XMLID_71_" x="450.5" y="323" class="st6" width="25.5" height="1.9"/>
	<rect id="XMLID_70_" x="399.9" y="306.7" class="st6" width="31.8" height="2.9"/>
	<rect id="XMLID_69_" x="403.6" y="314.8" class="st28" width="31.4" height="2.3"/>
	
		<rect id="XMLID_68_" x="469.9" y="252.1" transform="matrix(0.9923 -0.1241 0.1241 0.9923 -32.3239 61.2585)" class="st30" width="11" height="75.9"/>
	
		<rect id="XMLID_67_" x="480.6" y="252.1" transform="matrix(0.9922 -0.1243 0.1243 0.9922 -32.268 62.8839)" class="st31" width="14.2" height="75.9"/>
	
		<rect id="XMLID_66_" x="500.3" y="256.5" transform="matrix(0.9922 -0.1243 0.1243 0.9922 -32.3121 65.6162)" class="st33" width="18.9" height="70.7"/>
	
		<rect id="XMLID_65_" x="494.1" y="244.7" transform="matrix(0.9922 -0.1244 0.1244 0.9922 -31.7887 64.0424)" class="st34" width="5.6" height="83.6"/>
	
		<rect id="XMLID_64_" x="520" y="267.1" transform="matrix(0.9922 -0.1244 0.1244 0.9922 -32.9745 67.3507)" class="st35" width="5.6" height="61.1"/>
	<polygon id="XMLID_63_" class="st10" points="527.3,271.8 522.8,275.2 563.4,328.4 567.9,325 	"/>
	<rect id="XMLID_62_" x="385.9" y="303.9" class="st36" width="2.5" height="8.4"/>
	<rect id="XMLID_61_" x="441" y="303.9" class="st36" width="2.5" height="8.4"/>
	<path id="XMLID_60_" class="st32" d="M400.5,300.3c0-1.2,1-2.2,2.2-2.2c1.2,0,2.2,1,2.2,2.2c0,1.2-1,2.2-2.2,2.2
		C401.5,302.5,400.5,301.5,400.5,300.3"/>
	<path id="XMLID_59_" class="st10" d="M389.9,278.3c0,1.5-0.6,2.7-1.4,2.7c-0.8,0-1.4-1.2-1.4-2.7v-14.4c0-1.5,0.6-2.7,1.4-2.7
		c0.8,0,1.4,1.2,1.4,2.7V278.3z"/>
	<path id="XMLID_58_" class="st10" d="M410.7,278.3c0,1.5-0.6,2.7-1.4,2.7c-0.8,0-1.4-1.2-1.4-2.7v-14.4c0-1.5,0.6-2.7,1.4-2.7
		c0.8,0,1.4,1.2,1.4,2.7V278.3z"/>
	<path id="XMLID_57_" class="st10" d="M432.2,278.3c0,1.5-0.6,2.7-1.4,2.7c-0.8,0-1.4-1.2-1.4-2.7v-14.4c0-1.5,0.6-2.7,1.4-2.7
		c0.8,0,1.4,1.2,1.4,2.7V278.3z"/>
	<path id="XMLID_56_" class="st10" d="M451.3,278.3c0,1.5-0.6,2.7-1.4,2.7c-0.8,0-1.4-1.2-1.4-2.7v-14.4c0-1.5,0.6-2.7,1.4-2.7
		c0.8,0,1.4,1.2,1.4,2.7V278.3z"/>
	<rect id="XMLID_55_" x="371.7" y="290.8" class="st33" width="81" height="5.8"/>
	<rect id="XMLID_54_" x="376" y="290.8" class="st37" width="1.2" height="5.8"/>
	<rect id="XMLID_53_" x="389.9" y="292.9" class="st6" width="11.2" height="1.6"/>
	<rect id="XMLID_52_" x="407.7" y="292.9" class="st6" width="29.2" height="1.6"/>
	<rect id="XMLID_51_" x="448.6" y="290.8" class="st37" width="1.2" height="5.8"/>
	<rect id="XMLID_50_" x="390.8" y="278.7" class="st29" width="54.5" height="12.1"/>
	<path id="XMLID_49_" class="st6" d="M395,284.8c0-1.8,1.5-3.3,3.3-3.3c1.8,0,3.3,1.5,3.3,3.3c0,1.8-1.5,3.3-3.3,3.3
		C396.5,288.1,395,286.6,395,284.8"/>
	<rect id="XMLID_48_" x="408.5" y="283" class="st6" width="33.6" height="2.8"/>
	<polygon id="XMLID_47_" class="st36" points="477.5,265.2 466.9,266.3 467.2,268.8 477.8,267.6 	"/>
	<polygon id="XMLID_46_" class="st36" points="483.2,310.6 472.6,311.7 472.9,314.2 483.5,313 	"/>
	<polygon id="XMLID_45_" class="st32" points="490.7,259.8 476.8,261.4 477.1,263.8 491,262.2 	"/>
	<polygon id="XMLID_44_" class="st32" points="497.8,315.1 483.9,316.7 484.2,319.1 498.1,317.5 	"/>
	<path id="XMLID_43_" class="st6" d="M513,267.9c0,3.4-2.7,6.1-6.1,6.1c-3.4,0-6.1-2.7-6.1-6.1c0-3.4,2.7-6.1,6.1-6.1
		C510.2,261.8,513,264.5,513,267.9"/>
	<rect id="XMLID_42_" x="646.3" y="251.5" class="st38" width="52.2" height="76.9"/>
	<rect id="XMLID_41_" x="641.8" y="251.5" class="st39" width="4.5" height="76.9"/>
	<rect id="XMLID_40_" x="652.2" y="267" class="st39" width="39" height="19.6"/>
	<rect id="XMLID_39_" x="251.8" y="290.9" class="st19" width="89.3" height="17.5"/>
	<rect id="XMLID_38_" x="251.8" y="293.1" class="st6" width="80.3" height="13"/>
	<rect id="XMLID_37_" x="95.3" y="328" class="st10" width="650.3" height="11.4"/>
	<g id="XMLID_30_">
		<rect id="XMLID_36_" x="237.2" y="308.3" class="st40" width="99.9" height="19.6"/>
		<rect id="XMLID_35_" x="237.2" y="310.6" class="st6" width="85.4" height="13.8"/>
		<g id="XMLID_31_">
			<g id="XMLID_32_">
				<defs>
					<rect id="XMLID_33_" x="237.2" y="310.6" width="85.4" height="2.2"/>
				</defs>
				<clipPath id="XMLID_200_">
					<use xlink:href="#XMLID_33_"  style="overflow:visible;"/>
				</clipPath>
				<rect id="XMLID_34_" x="237.2" y="310.6" class="st41" width="85.4" height="2.2"/>
			</g>
		</g>
	</g>
	<g id="XMLID_26_">
		<g id="XMLID_27_">
			<defs>
				<rect id="XMLID_28_" x="251.8" y="292.9" width="80.3" height="2.1"/>
			</defs>
			<clipPath id="XMLID_201_">
				<use xlink:href="#XMLID_28_"  style="overflow:visible;"/>
			</clipPath>
			<rect id="XMLID_29_" x="251.8" y="292.9" class="st42" width="80.3" height="2.1"/>
		</g>
	</g>
	<text id="XMLID_132_" transform="matrix(1 0 0 1 654.152 278.7611)" class="st6 st43 st44">Shakespeare</text>
</g>
<g id="XMLID_232_">
	<rect id="XMLID_249_" x="125.6" y="262.1" class="st5" width="86.1" height="65.9"/>
	<rect id="XMLID_248_" x="135.9" y="272.8" class="st6" width="65.4" height="44.6"/>
	<rect id="XMLID_247_" x="143.7" y="280.9" class="st45" width="49.8" height="28.3"/>
	<rect id="XMLID_246_" x="146" y="295" class="st46" width="46" height="3.5"/>
	<rect id="XMLID_245_" x="182.9" y="290.4" class="st47" width="5.6" height="8.1"/>
	<rect id="XMLID_244_" x="162.7" y="285.8" class="st47" width="2.9" height="12.7"/>
	<rect id="XMLID_243_" x="165.6" y="290.4" class="st48" width="3.1" height="8.1"/>
	<rect id="XMLID_242_" x="168.6" y="291.8" class="st47" width="6.9" height="6.7"/>
	<rect id="XMLID_241_" x="178.5" y="291.8" class="st48" width="5.6" height="6.7"/>
	<rect id="XMLID_240_" x="159.4" y="287.1" class="st47" width="3.8" height="11.4"/>
	<rect id="XMLID_239_" x="149.3" y="291.8" class="st49" width="10.1" height="6.7"/>
	<rect id="XMLID_238_" x="150.7" y="289.7" class="st50" width="3" height="8.8"/>
	<rect id="XMLID_237_" x="157.4" y="290.4" class="st46" width="1.5" height="8.1"/>
	<g id="XMLID_233_" class="st0">
		<g id="XMLID_234_" class="st1">
			<defs>
				<rect id="XMLID_235_" x="169" y="262.1" width="42.7" height="65.9"/>
			</defs>
			<clipPath id="XMLID_202_">
				<use xlink:href="#XMLID_235_"  style="overflow:visible;"/>
			</clipPath>
			<rect id="XMLID_236_" x="169" y="262.1" class="st51" width="42.7" height="65.9"/>
		</g>
	</g>
</g>
<g id="XMLID_1_">
	<g id="XMLID_8_">
		<defs>
			<rect id="XMLID_10_" x="72.1" y="71.5" width="697.7" height="166.4"/>
		</defs>
		<clipPath id="XMLID_203_">
			<use xlink:href="#XMLID_10_"  style="overflow:visible;"/>
		</clipPath>
		<g id="XMLID_11_" class="st52">
			<defs>
				<rect id="XMLID_12_" x="72.1" y="71.5" width="697.7" height="166.4"/>
			</defs>
			<clipPath id="XMLID_204_">
				<use xlink:href="#XMLID_12_"  style="overflow:visible;"/>
			</clipPath>
			<g id="XMLID_13_" class="st53">
				<defs>
					<rect id="XMLID_14_" x="72.1" y="71.5" width="697.7" height="166.4"/>
				</defs>
				<clipPath id="XMLID_205_">
					<use xlink:href="#XMLID_14_"  style="overflow:visible;"/>
				</clipPath>
				<g id="XMLID_318_" class="st54">
					<text transform="matrix(1 0 0 1 285.5911 195.6727)"><tspan x="0" y="0" class="st6 st55 st56 st57">w</tspan><tspan x="97.3" y="0" class="st6 st55 st56 st58">a</tspan><tspan x="165.4" y="0" class="st6 st55 st56 st59">k</tspan><tspan x="224.2" y="0" class="st6 st55 st56">e</tspan></text>
				</g>
				<g id="XMLID_317_" class="st54">
					<text transform="matrix(1 0 0 1 579.1711 195.6727)" class="st3 st55 st56"> </text>
				</g>
				<g id="XMLID_316_" class="st54">
					<text transform="matrix(1 0 0 1 608.4309 195.6727)"><tspan x="0" y="0" class="st6 st55 st56 st58">u</tspan><tspan x="70.5" y="0" class="st6 st55 st56">p</tspan></text>
				</g>
				<path id="XMLID_315_" class="st60" d="M91.3,214.6c-0.2-0.3-0.1-1.1,0.6-2.8c0.8-1.9,1.6-3.5,1.8-4c1.5-3.3,3.4-6.9,3.4-6.9
					c3-5.8-1-11.1-2.6-17.1c-1.8-7.1-2.9-14.4-3.3-21.7c-0.4-8.2,0.1-16.4,1.5-24.4c1.3-7.6,4.8-14.9,5.2-22.5
					c0.2-4.6,0-9.2-0.7-13.7c-0.7-4.7-2.1-9.4-3.3-14c0.5,1.9,8.2,3.2,10,3.9c3.8,1.4,7.6,2.5,11.5,3.6c3.8,1,7.9,2.3,11.8,2.5
					c3.7,0.2,7.3-1.4,10.9-2.1c9.5-2,19-3.5,28.6-4.4c19.2-1.8,38.7-1.5,57.9,1.2c5.2,0.7,10.9,1.1,15.9,2.9
					c4.2,1.5,8.9,4.4,13.5,2.5c1.1-0.5,2.4-1.3,5.1-3.1c3.8-2.5,5.7-3.8,6.4-4.5c0.3-0.3,1.2-1.2,1.5-1.1c0.3,0.1,0.1,1,0,1.2
					c-2.2,8.1-6,14.1-3.7,22.3c2.6,9.2,5,18.2,6,27.7c1.6,15.6,0.2,28.4-1.3,36.4c-3.3,17.9-8.9,24.6-4.6,34
					c2.9,6.4,8.9,10.9,8.2,11.7c-0.6,0.6-3.9-2.3-9.3-4.8c-10.4-5-20.2-4.9-23.6-4.8c-7.6,0.2-13.1,2.3-16.1,3.1
					c-16.8,4.2-34.1,6.2-51.4,5.8c-17.2-0.4-33.8-0.5-50.5-5.6c-4.9-1.5-9.8-3.3-14.9-3.8c-3.3-0.3-6.9,0-10,1.2
					C93.6,213.8,91.7,215.1,91.3,214.6"/>
				<g id="XMLID_311_" class="st61">
					<g id="XMLID_312_">
						<defs>
							<rect id="XMLID_313_" x="252.8" y="120.2" width="11.9" height="70.5"/>
						</defs>
						<clipPath id="XMLID_206_">
							<use xlink:href="#XMLID_313_"  style="overflow:visible;"/>
						</clipPath>
						<path id="XMLID_314_" class="st62" d="M252.8,189.6c0-0.3,0.1-0.5,0.2-0.8c13.4-18.4,13.4-48.4,0.2-66.8
							c-0.3-0.4-0.3-1.1,0-1.5c0.3-0.4,0.8-0.4,1.1,0c13.9,19.3,13.8,50.6-0.2,69.8c-0.3,0.4-0.8,0.4-1.1,0
							C252.9,190.2,252.8,189.9,252.8,189.6"/>
					</g>
				</g>
				<g id="XMLID_287_" class="st61">
					<g id="XMLID_293_">
						<defs>
							<rect id="XMLID_299_" x="249.7" y="127.3" width="8.9" height="56.3"/>
						</defs>
						<clipPath id="XMLID_207_">
							<use xlink:href="#XMLID_299_"  style="overflow:visible;"/>
						</clipPath>
						<path id="XMLID_305_" class="st63" d="M249.7,182.4c0-0.3,0.1-0.6,0.2-0.8c9.4-14.4,9.4-37.8,0-52.2c-0.3-0.5-0.3-1.2,0-1.7
							c0.3-0.5,0.8-0.5,1.1,0c10.1,15.3,10.1,40.3,0,55.6c-0.3,0.5-0.8,0.5-1.1,0C249.8,183,249.7,182.7,249.7,182.4"/>
					</g>
				</g>
				<g id="XMLID_258_" class="st61">
					<g id="XMLID_259_">
						<defs>
							<rect id="XMLID_281_" x="96.6" y="120.2" width="11.9" height="70.5"/>
						</defs>
						<clipPath id="XMLID_208_">
							<use xlink:href="#XMLID_281_"  style="overflow:visible;"/>
						</clipPath>
						<path id="XMLID_282_" class="st64" d="M108.5,189.6c0,0.3-0.1,0.5-0.2,0.8c-0.3,0.4-0.8,0.4-1.1,0
							c-14-19.2-14.1-50.6-0.2-69.8c0.3-0.4,0.8-0.4,1.1,0c0.3,0.4,0.3,1.1,0,1.5c-13.3,18.5-13.2,48.4,0.2,66.8
							C108.4,189.1,108.5,189.3,108.5,189.6"/>
					</g>
				</g>
				<g id="XMLID_21_" class="st61">
					<g id="XMLID_22_">
						<defs>
							<rect id="XMLID_23_" x="102.7" y="127.3" width="8.9" height="56.3"/>
						</defs>
						<clipPath id="XMLID_209_">
							<use xlink:href="#XMLID_23_"  style="overflow:visible;"/>
						</clipPath>
						<path id="XMLID_24_" class="st65" d="M111.6,182.4c0,0.3-0.1,0.6-0.2,0.8c-0.3,0.5-0.8,0.5-1.1,0c-10.1-15.3-10.1-40.3,0-55.6
							c0.3-0.5,0.8-0.5,1.1,0s0.3,1.2,0,1.7c-9.4,14.4-9.4,37.8,0,52.2C111.5,181.8,111.6,182.1,111.6,182.4"/>
					</g>
				</g>
				<path id="XMLID_15_" class="st66" d="M206.3,138.5l-11.8-9.9l-3.3,3.9l11.8,9.9L206.3,138.5z M170,132.5l-3.3-3.9l-11.8,9.9
					l3.3,3.9L170,132.5z M181.9,144.3H178v15.4l12.2,7.3l1.9-3.2l-10.3-6.1V144.3z M180.6,134c-12.8,0-23.1,10.3-23.1,23.1
					c0,12.8,10.3,23.1,23.1,23.1c12.8,0,23.1-10.3,23.1-23.1C203.7,144.4,193.3,134,180.6,134 M180.6,175.1c-9.9,0-18-8-18-18
					c0-9.9,8-18,18-18c9.9,0,18,8,18,18C198.6,167.1,190.5,175.1,180.6,175.1"/>
			</g>
		</g>
	</g>
</g>
<g id="XMLID_3_">
	<path id="XMLID_5_" class="st67" d="M574.1,460.8c0-0.1,0-0.2,0.1-0.2c6.6-5.5,6.6-14.4,0-19.9c-0.1-0.1-0.1-0.3,0-0.5
		c0.1-0.1,0.4-0.1,0.5,0c6.9,5.7,6.8,15.1,0,20.8c-0.1,0.1-0.4,0.1-0.5,0C574.1,461,574.1,460.9,574.1,460.8L574.1,460.8z
		 M574.4,460.8"/>
	<path id="XMLID_7_" class="st67" d="M573.5,458.7c0-0.1,0-0.2,0.1-0.2c5.2-4.3,5.2-11.3,0-15.5c-0.2-0.1-0.2-0.4,0-0.5
		c0.2-0.1,0.4-0.1,0.6,0c5.6,4.6,5.6,12,0,16.6c-0.2,0.1-0.4,0.1-0.6,0C573.5,458.9,573.5,458.8,573.5,458.7L573.5,458.7z
		 M573.5,458.7"/>
</g>
<g id="XMLID_135_">
	<path id="XMLID_173_" class="st67" d="M463.5,460.8c0,0.1,0,0.2-0.1,0.2c-0.1,0.1-0.4,0.1-0.5,0c-6.9-5.7-6.9-15,0-20.8
		c0.1-0.1,0.4-0.1,0.5,0s0.1,0.3,0,0.5c-6.6,5.5-6.5,14.4,0,19.9C463.5,460.7,463.5,460.7,463.5,460.8L463.5,460.8z M463.2,460.8"/>
	<path id="XMLID_155_" class="st67" d="M464.2,458.7c0,0.1,0,0.2-0.1,0.3c-0.2,0.1-0.4,0.1-0.6,0c-5.6-4.6-5.6-12,0-16.6
		c0.2-0.1,0.4-0.1,0.6,0c0.2,0.1,0.2,0.4,0,0.5c-5.2,4.3-5.2,11.3,0,15.5C464.1,458.5,464.2,458.6,464.2,458.7L464.2,458.7z
		 M464.2,458.7"/>
</g>
<g id="XMLID_183_">
	<path id="XMLID_187_" class="st67" d="M370.1,460.8c0-0.1,0-0.2,0.1-0.2c6.6-5.5,6.6-14.4,0-19.9c-0.1-0.1-0.1-0.3,0-0.5
		c0.1-0.1,0.4-0.1,0.5,0c6.9,5.7,6.8,15.1,0,20.8c-0.1,0.1-0.4,0.1-0.5,0C370.1,461,370.1,460.9,370.1,460.8L370.1,460.8z
		 M370.4,460.8"/>
	<path id="XMLID_184_" class="st67" d="M369.5,458.7c0-0.1,0-0.2,0.1-0.2c5.2-4.3,5.2-11.3,0-15.5c-0.2-0.1-0.2-0.4,0-0.5
		c0.2-0.1,0.4-0.1,0.6,0c5.6,4.6,5.6,12,0,16.6c-0.2,0.1-0.4,0.1-0.6,0C369.5,458.9,369.5,458.8,369.5,458.7L369.5,458.7z
		 M369.5,458.7"/>
</g>
<g id="XMLID_176_">
	<path id="XMLID_180_" class="st67" d="M259.5,460.8c0,0.1,0,0.2-0.1,0.2c-0.1,0.1-0.4,0.1-0.5,0c-6.9-5.7-6.9-15,0-20.8
		c0.1-0.1,0.4-0.1,0.5,0s0.1,0.3,0,0.5c-6.6,5.5-6.5,14.4,0,19.9C259.5,460.7,259.5,460.7,259.5,460.8L259.5,460.8z M259.2,460.8"/>
	<path id="XMLID_177_" class="st67" d="M260.2,458.7c0,0.1,0,0.2-0.1,0.3c-0.2,0.1-0.4,0.1-0.6,0c-5.6-4.6-5.6-12,0-16.6
		c0.2-0.1,0.4-0.1,0.6,0c0.2,0.1,0.2,0.4,0,0.5c-5.2,4.3-5.2,11.3,0,15.5C260.1,458.5,260.2,458.6,260.2,458.7L260.2,458.7z
		 M260.2,458.7"/>
</g>
</svg>
